<?xml version="1.0" encoding="UTF-8"?>
<svg id="Layer_1" data-name="Layer 1" xmlns="http://www.w3.org/2000/svg" viewBox="0 0 664.48 448.92">
  <defs>
    <style>
      .cls-1 {
        fill: #fff;
      }
    </style>
  </defs>
  <path class="cls-1" d="M548.64,108.88l-24.72.09c-1.66.01-3.29.02-4.84.01h-10.07c-2.28-.12-4.52-.09-7.23,0h-1.3c-37.48-.02-60.82,0-112.46,0h-26.19s-77.46,0-77.46,0c-6.24-.17-11.94-.22-17.48-.12-44.02-.84-86.91,16.01-119.39,45.45h106.63c15.11-.04,34.37-.06,55.32-.06l122.48.05c11.05,0,20.95,0,29.12-.02,1.62-.09,3.59-.12,5.67-.09,8.68.19,19.88,1.85,24.04,8.64,2.22,3.62,2.1,8.09-.34,13.29-.1.19-.21.38-.31.57-9.23,14.68-28.87,21.87-44.67,27.66l-2.19.8c-23.22,7.92-34.64,8.79-53.49,8.79l-5.81-.02c-2.84-.01-5.86-.02-9.13-.02-1.97,0-4,.02-6.15.04h-26.09s-13.18,0-13.18,0h-13.19s-26.81,0-26.81,0h-35.28s0,.07,0,.07H106c-1.17,3.43-2.12,6.92-2.95,10.44h70.53c2.34-.05,4.78-.03,7.36,0h175.92c4.45-.03,8.84-.01,13.17,0,8.1.03,15.76.07,23.39-.23l2.38-.1c20.86-.9,36.82-4.27,53.35-11.27,14.76-6.33,28.71-15.55,42.22-24.47l57.77-38.22c2.27-1.5,4-3.69,4.93-6.24l6.58-17.98c3.05-8.33-3.13-17.14-12-17.11Z"/>
  <path class="cls-1" d="M496.41,287.92c5.12-3.82,2.42-11.96-3.96-11.96l-214.8.02c-20.95,0-40.22-.02-55.32-.06h-106.63c32.48,29.44,75.37,46.29,119.39,45.45,5.53.1,11.23.06,17.48-.12h190.36c5.67,0,11.18-1.83,15.73-5.21l37.76-28.12Z"/>
</svg>