<?xml version="1.0" encoding="UTF-8"?>
<svg id="Layer_1" data-name="Layer 1" xmlns="http://www.w3.org/2000/svg" viewBox="0 0 1190.55 841.89">
  <defs>
    <style>
      .cls-1 {
        fill: #fff;
      }
    </style>
  </defs>
  <g>
    <path class="cls-1" d="M262.21,493.01c0,2.44-2.98,4.4-6.66,4.4h-25.68v-2.82h28.08v-3.88h-22.57c-3.69,0-6.66-1.97-6.66-4.4v-.71c0-2.44,2.98-4.4,6.66-4.4h25.68v2.82h-28.08v3.88h22.57c3.69,0,6.66,1.97,6.66,4.4v.71Z"/>
    <path class="cls-1" d="M381.83,483.98h-14.58v13.43h-4.49v-13.43h-14.58v-2.83h33.64v2.83Z"/>
    <path class="cls-1" d="M501.14,492.99c0,2.44-3.09,4.41-6.93,4.41h-19.77c-3.83,0-6.93-1.97-6.93-4.41v-11.81h4.44v13.4h24.76v-13.4h4.44v11.81Z"/>
    <path class="cls-1" d="M620.51,493.01c0,2.44-3.08,4.42-6.89,4.42h-26.54v-16.26h26.54c3.81,0,6.89,1.97,6.89,4.42v7.42ZM616.11,494.6v-10.61h-24.61v10.61h24.61Z"/>
    <path class="cls-1" d="M716.77,497.42h-4.07v-16.38h4.07v16.38Z"/>
    <path class="cls-1" d="M842.22,492.99c0,2.44-3.06,4.42-6.86,4.43l-19.6.06c-3.8.01-6.88-1.95-6.88-4.39l-.02-7.41c0-2.44,3.06-4.42,6.86-4.43l19.6-.06c3.8-.01,6.88,1.95,6.88,4.39l.02,7.41ZM837.83,494.59l-.03-10.59-24.55.07.03,10.59,24.55-.07Z"/>
    <path class="cls-1" d="M961.59,493.01c0,2.44-2.97,4.4-6.64,4.4h-25.6v-2.82h27.99v-3.88h-22.5c-3.68,0-6.64-1.97-6.64-4.4v-.71c0-2.44,2.97-4.4,6.64-4.4h25.6v2.82h-27.99v3.88h22.5c3.68,0,6.64,1.97,6.64,4.4v.71Z"/>
    <path class="cls-1" d="M954.61,429.32l-21.95-67.03c-2.21-7.42-5.77-10.23-13.07-10.28h-.18c-7.34.04-10.9,2.85-13.11,10.28l-.05.15-22.19,66.89h-7.23l22.16-69.23c3.17-10.53,9.6-15.5,20.22-15.6h0c.09,0,.19,0,.28,0,.08,0,.17,0,.25,0h0c10.61.1,17.05,5.07,20.21,15.6l21.87,69.23h-7.23Z"/>
    <path class="cls-1" d="M723.48,417.43l-1.4,1.41v10.93c2.09-.54,5.11-1.36,7.92-4.85,5.97-6.12,16.6-45.68,27.28-80.51h-7.02l-21.9,65.13c-1,2.97-2.67,5.67-4.88,7.89Z"/>
    <path class="cls-1" d="M461.22,373.38c2.8.59,5.31,1.91,7.29,3.72,2.75,2.53,4.44,6.01,4.44,9.86,0,6.6-5,12.15-11.7,13.59,6.3,13.52,19.47,21.91,33.31,21.09h.23s40.47,0,40.47,0v7.68h-40.36c-.74.04-1.47.06-2.2.06-16.75,0-32.29-10.76-39.17-27.4-4.04-9.73-4.03-20.39-.02-30.05,7.2-17.34,23.82-28.3,41.39-27.3h40.36v7.67h-40.69c-13.87-.83-27.08,7.59-33.34,21.08Z"/>
    <path class="cls-1" d="M239.66,373.38c2.8.59,5.31,1.91,7.29,3.72,2.75,2.53,4.44,6.01,4.44,9.86,0,6.6-5,12.15-11.7,13.59,6.3,13.52,19.47,21.91,33.31,21.09h.23s40.47,0,40.47,0v7.68h-40.36c-.74.04-1.47.06-2.2.06-16.75,0-32.29-10.76-39.17-27.4-4.04-9.73-4.03-20.39-.02-30.05,7.2-17.34,23.82-28.3,41.39-27.3h40.36v7.67h-40.69c-13.87-.83-27.08,7.59-33.34,21.08Z"/>
    <path class="cls-1" d="M706.13,417.43l1.4,1.41v10.93c-2.09-.54-5.11-1.36-7.92-4.85-5.97-6.12-16.6-45.68-27.28-80.51h7.02s21.9,65.13,21.9,65.13c1,2.97,2.67,5.67,4.88,7.89Z"/>
  </g>
  <g>
    <path class="cls-1" d="M262.21,493.01c0,2.44-2.98,4.4-6.66,4.4h-25.68v-2.82h28.08v-3.88h-22.57c-3.69,0-6.66-1.97-6.66-4.4v-.71c0-2.44,2.98-4.4,6.66-4.4h25.68v2.82h-28.08v3.88h22.57c3.69,0,6.66,1.97,6.66,4.4v.71Z"/>
    <path class="cls-1" d="M381.83,483.98h-14.58v13.43h-4.49v-13.43h-14.58v-2.83h33.64v2.83Z"/>
    <path class="cls-1" d="M501.14,492.99c0,2.44-3.09,4.41-6.93,4.41h-19.77c-3.83,0-6.93-1.97-6.93-4.41v-11.81h4.44v13.4h24.76v-13.4h4.44v11.81Z"/>
    <path class="cls-1" d="M620.51,493.01c0,2.44-3.08,4.42-6.89,4.42h-26.54v-16.26h26.54c3.81,0,6.89,1.97,6.89,4.42v7.42ZM616.11,494.6v-10.61h-24.61v10.61h24.61Z"/>
    <path class="cls-1" d="M716.77,497.42h-4.07v-16.38h4.07v16.38Z"/>
    <path class="cls-1" d="M842.22,492.99c0,2.44-3.06,4.42-6.86,4.43l-19.6.06c-3.8.01-6.88-1.95-6.88-4.39l-.02-7.41c0-2.44,3.06-4.42,6.86-4.43l19.6-.06c3.8-.01,6.88,1.95,6.88,4.39l.02,7.41ZM837.83,494.59l-.03-10.59-24.55.07.03,10.59,24.55-.07Z"/>
    <path class="cls-1" d="M961.59,493.01c0,2.44-2.97,4.4-6.64,4.4h-25.6v-2.82h27.99v-3.88h-22.5c-3.68,0-6.64-1.97-6.64-4.4v-.71c0-2.44,2.97-4.4,6.64-4.4h25.6v2.82h-27.99v3.88h22.5c3.68,0,6.64,1.97,6.64,4.4v.71Z"/>
    <path class="cls-1" d="M954.61,429.32l-21.95-67.03c-2.21-7.42-5.77-10.23-13.07-10.28h-.18c-7.34.04-10.9,2.85-13.11,10.28l-.05.15-22.19,66.89h-7.23l22.16-69.23c3.17-10.53,9.6-15.5,20.22-15.6h0c.09,0,.19,0,.28,0,.08,0,.17,0,.25,0h0c10.61.1,17.05,5.07,20.21,15.6l21.87,69.23h-7.23Z"/>
    <path class="cls-1" d="M723.48,417.43l-1.4,1.41v10.93c2.09-.54,5.11-1.36,7.92-4.85,5.97-6.12,16.6-45.68,27.28-80.51h-7.02l-21.9,65.13c-1,2.97-2.67,5.67-4.88,7.89Z"/>
    <path class="cls-1" d="M461.22,373.38c2.8.59,5.31,1.91,7.29,3.72,2.75,2.53,4.44,6.01,4.44,9.86,0,6.6-5,12.15-11.7,13.59,6.3,13.52,19.47,21.91,33.31,21.09h.23s40.47,0,40.47,0v7.68h-40.36c-.74.04-1.47.06-2.2.06-16.75,0-32.29-10.76-39.17-27.4-4.04-9.73-4.03-20.39-.02-30.05,7.2-17.34,23.82-28.3,41.39-27.3h40.36v7.67h-40.69c-13.87-.83-27.08,7.59-33.34,21.08Z"/>
    <path class="cls-1" d="M239.66,373.38c2.8.59,5.31,1.91,7.29,3.72,2.75,2.53,4.44,6.01,4.44,9.86,0,6.6-5,12.15-11.7,13.59,6.3,13.52,19.47,21.91,33.31,21.09h.23s40.47,0,40.47,0v7.68h-40.36c-.74.04-1.47.06-2.2.06-16.75,0-32.29-10.76-39.17-27.4-4.04-9.73-4.03-20.39-.02-30.05,7.2-17.34,23.82-28.3,41.39-27.3h40.36v7.67h-40.69c-13.87-.83-27.08,7.59-33.34,21.08Z"/>
    <path class="cls-1" d="M706.13,417.43l1.4,1.41v10.93c-2.09-.54-5.11-1.36-7.92-4.85-5.97-6.12-16.6-45.68-27.28-80.51h7.02s21.9,65.13,21.9,65.13c1,2.97,2.67,5.67,4.88,7.89Z"/>
  </g>
</svg>