<svg width="790" height="91" viewBox="0 0 790 91" fill="none" xmlns="http://www.w3.org/2000/svg">
<g clip-path="url(#clip0_637_3976)">
<path d="M753.61 87.32L731.66 20.29C729.45 12.87 725.89 10.06 718.59 10.01H718.41C711.07 10.05 707.51 12.86 705.3 20.29L705.25 20.44L683.06 87.33H675.83L697.99 18.1C701.16 7.57001 707.59 2.6 718.21 2.5C718.3 2.5 718.4 2.5 718.49 2.5C718.57 2.5 718.66 2.5 718.74 2.5C729.35 2.6 735.79 7.57001 738.95 18.1L760.82 87.33H753.59L753.61 87.32Z" fill="white"/>
<path d="M522.48 75.4301L521.08 76.8401V87.7701C523.17 87.2301 526.19 86.4102 529 82.9202C534.97 76.8002 545.6 37.2402 556.28 2.41016H549.26L527.36 67.5402C526.36 70.5102 524.69 73.2101 522.48 75.4301Z" fill="white"/>
<path d="M260.221 31.38C263.021 31.97 265.531 33.29 267.511 35.1C270.261 37.63 271.951 41.11 271.951 44.96C271.951 51.56 266.951 57.11 260.251 58.55C266.551 72.07 279.721 80.46 293.561 79.64H293.791H334.261V87.32H293.901C293.161 87.36 292.431 87.38 291.701 87.38C274.951 87.38 259.411 76.62 252.531 59.98C248.491 50.25 248.501 39.59 252.511 29.93C259.711 12.59 276.331 1.63002 293.901 2.63002H334.261V10.3H293.571C279.701 9.47 266.491 17.89 260.231 31.38H260.221Z" fill="white"/>
<path d="M38.6602 31.38C41.4602 31.97 43.9702 33.29 45.9502 35.1C48.7002 37.63 50.3902 41.11 50.3902 44.96C50.3902 51.56 45.3902 57.11 38.6902 58.55C44.9902 72.07 58.1602 80.46 72.0002 79.64H72.2302H112.7V87.32H72.3402C71.6002 87.36 70.8702 87.38 70.1402 87.38C53.3902 87.38 37.8502 76.62 30.9702 59.98C26.9302 50.25 26.9402 39.59 30.9502 29.93C38.1502 12.59 54.7702 1.63002 72.3402 2.63002H112.7V10.3H72.0102C58.1402 9.47 44.9302 17.89 38.6702 31.38H38.6602Z" fill="white"/>
<path d="M505.13 75.4301L506.53 76.8401V87.7701C504.44 87.2301 501.42 86.4102 498.61 82.9202C492.64 76.8002 482.01 37.2402 471.33 2.41016H478.35L500.25 67.5402C501.25 70.5102 502.92 73.2101 505.13 75.4301Z" fill="white"/>
<path d="M753.61 87.32L731.66 20.29C729.45 12.87 725.89 10.06 718.59 10.01H718.41C711.07 10.05 707.51 12.86 705.3 20.29L705.25 20.44L683.06 87.33H675.83L697.99 18.1C701.16 7.57001 707.59 2.6 718.21 2.5C718.3 2.5 718.4 2.5 718.49 2.5C718.57 2.5 718.66 2.5 718.74 2.5C729.35 2.6 735.79 7.57001 738.95 18.1L760.82 87.33H753.59L753.61 87.32Z" fill="white"/>
<path d="M522.48 75.4301L521.08 76.8401V87.7701C523.17 87.2301 526.19 86.4102 529 82.9202C534.97 76.8002 545.6 37.2402 556.28 2.41016H549.26L527.36 67.5402C526.36 70.5102 524.69 73.2101 522.48 75.4301Z" fill="white"/>
<path d="M260.221 31.38C263.021 31.97 265.531 33.29 267.511 35.1C270.261 37.63 271.951 41.11 271.951 44.96C271.951 51.56 266.951 57.11 260.251 58.55C266.551 72.07 279.721 80.46 293.561 79.64H293.791H334.261V87.32H293.901C293.161 87.36 292.431 87.38 291.701 87.38C274.951 87.38 259.411 76.62 252.531 59.98C248.491 50.25 248.501 39.59 252.511 29.93C259.711 12.59 276.331 1.63002 293.901 2.63002H334.261V10.3H293.571C279.701 9.47 266.491 17.89 260.231 31.38H260.221Z" fill="white"/>
<path d="M38.6602 31.38C41.4602 31.97 43.9702 33.29 45.9502 35.1C48.7002 37.63 50.3902 41.11 50.3902 44.96C50.3902 51.56 45.3902 57.11 38.6902 58.55C44.9902 72.07 58.1602 80.46 72.0002 79.64H72.2302H112.7V87.32H72.3402C71.6002 87.36 70.8702 87.38 70.1402 87.38C53.3902 87.38 37.8502 76.62 30.9702 59.98C26.9302 50.25 26.9402 39.59 30.9502 29.93C38.1502 12.59 54.7702 1.63002 72.3402 2.63002H112.7V10.3H72.0102C58.1402 9.47 44.9302 17.89 38.6702 31.38H38.6602Z" fill="white"/>
<path d="M505.13 75.4301L506.53 76.8401V87.7701C504.44 87.2301 501.42 86.4102 498.61 82.9202C492.64 76.8002 482.01 37.2402 471.33 2.41016H478.35L500.25 67.5402C501.25 70.5102 502.92 73.2101 505.13 75.4301Z" fill="white"/>
</g>
<defs>
<clipPath id="clip0_637_3976">
<rect width="790" height="91" fill="white"/>
</clipPath>
</defs>
</svg>
