<svg width="458" height="212" viewBox="0 0 458 212" fill="none" xmlns="http://www.w3.org/2000/svg">
<g clip-path="url(#clip0_637_3970)">
<path d="M445.641 -0.12024L420.921 -0.0302357C419.261 -0.0202357 417.631 -0.0102336 416.081 -0.0202336H406.011C403.731 -0.140234 401.491 -0.110234 398.781 -0.0202336H397.481C360.001 -0.0402336 336.661 -0.0202336 285.021 -0.0202336H258.831H181.371C175.131 -0.190234 169.431 -0.240236 163.891 -0.140236C119.871 -0.980236 76.9808 15.8698 44.5008 45.3098H151.131C166.241 45.2698 185.501 45.2498 206.451 45.2498L328.931 45.2998C339.981 45.2998 349.881 45.2998 358.051 45.2798C359.671 45.1898 361.641 45.1598 363.721 45.1898C372.401 45.3798 383.601 47.0398 387.761 53.8298C389.981 57.4498 389.861 61.9198 387.421 67.1198C387.321 67.3098 387.211 67.4998 387.111 67.6898C377.881 82.3698 358.241 89.5598 342.441 95.3498L340.251 96.1498C317.031 104.07 305.611 104.94 286.761 104.94L280.951 104.92C278.111 104.91 275.091 104.9 271.821 104.9C269.851 104.9 267.821 104.92 265.671 104.94H239.581H226.401H213.211H186.401H151.121V105.01H3.00078C1.83078 108.44 0.880781 111.93 0.0507812 115.45H70.5808C72.9208 115.4 75.3608 115.42 77.9408 115.45H253.861C258.311 115.42 262.701 115.44 267.031 115.45C275.131 115.48 282.791 115.52 290.421 115.22L292.801 115.12C313.661 114.22 329.621 110.85 346.151 103.85C360.911 97.5198 374.861 88.2998 388.371 79.3798L446.141 41.1598C448.411 39.6598 450.141 37.4698 451.071 34.9198L457.651 16.9398C460.701 8.60977 454.521 -0.200235 445.651 -0.170235L445.641 -0.12024Z" fill="white"/>
<path d="M393.409 178.92C398.529 175.1 395.829 166.96 389.449 166.96L174.649 166.98C153.699 166.98 134.429 166.96 119.329 166.92H12.6992C45.1792 196.36 88.0692 213.21 132.089 212.37C137.619 212.47 143.319 212.43 149.569 212.25H339.929C345.599 212.25 351.109 210.42 355.659 207.04L393.419 178.92H393.409Z" fill="white"/>
</g>
<defs>
<clipPath id="clip0_637_3970">
<rect width="458" height="212" fill="white"/>
</clipPath>
</defs>
</svg>
