<svg width="30" height="30" viewBox="0 0 30 30" fill="none" xmlns="http://www.w3.org/2000/svg">
<path d="M14.7797 13.5H13.7409C13.6344 13.5 13.5454 13.464 13.4739 13.392C13.4024 13.32 13.3664 13.2307 13.3659 13.1242C13.3654 13.0177 13.4014 12.9287 13.4739 12.8572C13.5464 12.7857 13.6354 12.75 13.7409 12.75H14.7797V11.712C14.7797 11.6055 14.8157 11.5162 14.8877 11.4442C14.9592 11.3722 15.0482 11.3362 15.1547 11.3362C15.2612 11.3362 15.3502 11.3722 15.4217 11.4442C15.4932 11.5162 15.5292 11.6052 15.5297 11.7112V12.75H16.5677C16.6742 12.75 16.7632 12.786 16.8347 12.858C16.9062 12.93 16.9422 13.0192 16.9427 13.1257C16.9432 13.2322 16.9072 13.3212 16.8347 13.3927C16.7622 13.4642 16.6732 13.5 16.5677 13.5H15.5297V14.5387C15.5297 14.6447 15.4937 14.7337 15.4217 14.8057C15.3497 14.8777 15.2604 14.9135 15.1539 14.913C15.0474 14.9125 14.9584 14.8767 14.8869 14.8057C14.8154 14.7347 14.7797 14.6455 14.7797 14.538V13.5ZM15.1547 17.4225C13.9532 17.4225 12.9364 17.007 12.1044 16.176C11.2724 15.344 10.8564 14.3277 10.8564 13.1272C10.8564 11.9267 11.2719 10.91 12.1029 10.077C12.9339 9.24397 13.9499 8.82722 15.1509 8.82672C16.3519 8.82672 17.3689 9.24272 18.2019 10.0747C19.0349 10.9072 19.4514 11.924 19.4514 13.125C19.4514 13.646 19.3592 14.1502 19.1747 14.6377C18.9902 15.1252 18.7477 15.5422 18.4472 15.8887L22.8789 20.319C22.9489 20.389 22.9864 20.4752 22.9914 20.5777C22.9959 20.6792 22.9584 20.77 22.8789 20.85C22.7989 20.93 22.7104 20.97 22.6134 20.97C22.5164 20.97 22.4279 20.93 22.3479 20.85L17.9169 16.419C17.5419 16.7385 17.1107 16.9857 16.6232 17.1607C16.1357 17.3357 15.6457 17.4232 15.1532 17.4232M15.1532 16.6732C16.1482 16.6732 16.9884 16.3307 17.6739 15.6457C18.3589 14.9607 18.7014 14.1205 18.7014 13.125C18.7014 12.1295 18.3594 11.2895 17.6754 10.605C16.9914 9.92047 16.1514 9.57797 15.1554 9.57747C14.1599 9.57747 13.3197 9.91997 12.6347 10.605C11.9497 11.29 11.6069 12.13 11.6064 13.125C11.6059 14.12 11.9484 14.96 12.6339 15.645C13.3194 16.33 14.1594 16.6725 15.1539 16.6725" fill="#F2F2F2"/>
</svg>
