<svg width="150" height="104" viewBox="0 0 150 104" fill="none" xmlns="http://www.w3.org/2000/svg">
<g clip-path="url(#clip0_427_35)">
<path d="M150 49.027C150 22.0833 116.315 0.156738 75 0.156738C33.4988 0.156738 0 22.0833 0 49.027C0 49.7702 0 51.6284 0 51.8142C0 80.4303 29.4045 103.658 75 103.658C120.968 103.658 150 80.4303 150 51.8142V49.027Z" fill="#0A0080"/>
<path d="M147.022 49.0269C147.022 74.484 114.826 95.1099 75 95.1099C35.1737 95.1099 2.97766 74.484 2.97766 49.0269C2.97766 23.5698 35.1737 2.94397 75 2.94397C114.826 3.12979 147.022 23.5698 147.022 49.0269Z" fill="#2ABCFF"/>
<path d="M50.9925 34.5331C50.9925 34.5331 50.2481 35.2764 50.6203 36.0197C51.737 37.5062 55.2729 38.2495 58.8089 37.5062C60.8561 36.9487 63.6476 34.9047 66.2531 32.8607C69.0446 30.6309 71.8362 28.4011 74.8139 27.472C77.7915 26.5429 79.6526 26.9146 80.9553 27.2862C82.4442 27.6578 83.933 28.5869 86.5384 30.6309C91.5633 34.3473 111.29 51.6284 114.64 54.6015C117.432 53.3008 129.715 48.0978 146.278 44.3815C145.161 35.4622 139.764 27.2862 131.576 20.5967C120.223 25.428 106.265 27.8436 92.4938 21.1542C92.4938 21.1542 85.0496 17.6236 77.7915 17.8095C66.9975 17.9953 62.3449 22.8266 57.3201 27.6578L50.9925 34.5331Z" fill="white"/>
<path d="M114.082 56.2739C113.896 56.0881 90.8189 35.8339 85.608 31.9317C82.6303 29.7019 80.9554 29.1444 79.0943 28.7728C78.1638 28.587 76.8611 28.7728 75.9306 29.1444C73.5112 29.8877 70.3474 31.9317 67.5559 34.1615C64.5782 36.5772 61.7866 38.6212 59.3673 39.1786C56.2035 40.1077 52.1092 39.1786 50.2482 38.0637C49.5038 37.5062 48.9454 36.9488 48.7593 36.3913C48.0149 34.9048 49.3177 33.6041 49.5038 33.4182L55.8313 26.543C56.5757 25.7997 57.3201 25.0564 58.0646 24.3131C56.0174 24.499 54.1564 25.0564 52.2953 25.6139C50.0621 26.1713 47.8288 26.9146 45.5956 26.9146C44.665 26.9146 39.6402 26.1713 38.7097 25.7997C32.9405 24.3131 27.9157 22.6408 20.2854 19.1102C11.1663 25.7997 5.21095 34.1615 3.53601 43.4524C4.83874 43.8241 6.88589 44.3815 7.81641 44.5673C28.2879 49.027 34.6154 53.8583 35.9181 54.7874C37.2209 53.4866 38.8958 52.5575 40.943 52.5575C43.1762 52.5575 45.2234 53.6724 46.5261 55.5306C47.6427 54.6015 49.3177 53.8583 51.3648 53.8583C52.2953 53.8583 53.2258 54.0441 54.3425 54.4157C56.5757 55.159 57.8784 56.8314 58.4368 58.1321C59.1812 57.7604 60.1117 57.5746 61.2283 57.5746C62.3449 57.5746 63.4616 57.7604 64.5782 58.3179C68.3003 59.9903 68.8586 63.7066 68.6725 66.4939C68.8586 66.4939 69.2308 66.4939 69.4169 66.4939C73.8834 66.4939 77.6055 70.2103 77.6055 74.6699C77.6055 75.9706 77.2333 77.2714 76.675 78.5721C77.9777 79.3154 80.9554 80.8019 83.7469 80.4303C85.9802 80.2445 86.7246 79.5012 87.0968 78.9437C87.2829 78.5721 87.469 78.3863 87.2829 78.0146L81.5137 71.511C81.5137 71.511 80.5832 70.5819 80.9554 70.2103C81.3276 69.8386 81.8859 70.3961 82.2581 70.7677C85.2358 73.1834 88.7717 76.8997 88.7717 76.8997C88.7717 76.8997 89.1439 77.4572 90.4467 77.643C91.5633 77.8288 93.6105 77.643 95.0993 76.5281C95.4715 76.1565 95.8437 75.7848 96.0298 75.4132C97.5186 73.555 95.8437 71.6968 95.8437 71.6968L89.144 64.0783C89.144 64.0783 88.2134 63.1492 88.5856 62.7775C88.9578 62.4059 89.5162 62.9634 89.8884 63.335C91.9355 65.1932 95.0993 68.1663 97.8908 70.9535C98.4492 71.3252 101.055 72.9975 104.404 70.7677C106.452 69.467 106.824 67.7946 106.824 66.4939C106.638 64.8215 105.335 63.7066 105.335 63.7066L96.0298 54.4157C96.0298 54.4157 95.0993 53.6724 95.4715 53.115C95.8437 52.7433 96.402 53.3008 96.7742 53.6724C99.7519 56.0881 107.754 63.335 107.754 63.335C107.94 63.335 110.546 65.379 114.082 63.1492C115.385 62.4059 116.129 61.291 116.129 59.8044C115.757 57.7604 114.082 56.2739 114.082 56.2739Z" fill="white"/>
<path d="M69.4169 67.9804C67.928 67.9804 66.4392 68.7237 66.2531 68.7237C66.067 68.7237 66.2531 68.1662 66.4392 67.7946C66.6253 67.4229 68.4863 61.8484 63.8337 59.8044C60.2977 58.3178 58.2506 59.9902 57.5062 60.7335C57.3201 60.9193 57.134 60.9193 57.134 60.7335C57.134 59.8044 56.5757 57.0171 53.598 56.088C49.3176 54.7873 46.526 57.7604 45.7816 58.8753C45.4094 56.4597 43.3623 54.4156 40.7568 54.4156C37.9652 54.4156 35.732 56.6455 35.732 59.4327C35.732 62.22 37.9652 64.4498 40.7568 64.4498C42.0595 64.4498 43.3623 63.8924 44.2928 62.9633C44.2928 62.9633 44.2928 62.9633 44.2928 63.1491C44.1067 64.4498 43.7345 68.9095 48.3871 70.7677C50.2481 71.5109 51.9231 70.9535 53.2258 70.0244C53.598 69.6527 53.598 69.8386 53.598 70.2102C53.4119 71.3251 53.598 73.9266 57.134 75.2273C59.7394 76.3422 61.4144 75.2273 62.3449 74.2982C62.7171 73.9266 62.9032 73.9266 62.9032 74.6698C63.0893 78.0146 65.8809 80.616 69.2308 80.616C72.7667 80.616 75.5583 77.8288 75.5583 74.2982C75.7444 70.9535 72.9528 68.1662 69.4169 67.9804Z" fill="white"/>
<path d="M115.012 53.8582C107.94 47.7262 91.3772 33.4182 87.0968 30.0734C84.4913 28.2153 82.8164 27.1004 81.3275 26.7287C80.5831 26.5429 79.6526 26.3571 78.536 26.3571C77.4194 26.3571 76.1166 26.5429 75 26.9145C72.2084 27.8436 69.2308 30.0734 66.4392 32.3033L66.2531 32.4891C63.6476 34.5331 61.0422 36.5771 58.995 37.1345C58.0645 37.3204 57.134 37.5062 56.3896 37.5062C54.1563 37.5062 52.1092 36.7629 51.3648 35.8338C51.1787 35.648 51.3648 35.4622 51.5509 35.0905L57.6923 28.0294C62.531 23.1982 67.1836 18.5527 77.7916 18.3669C77.9777 18.3669 78.1638 18.3669 78.3499 18.3669C85.0496 18.3669 91.5633 21.34 92.3077 21.7116C98.6352 24.6847 104.963 26.1713 111.476 26.1713C118.176 26.1713 125.062 24.4989 132.506 21.1542C131.762 20.4109 130.831 19.8534 129.901 19.1102C123.573 21.8974 117.432 23.1982 111.476 23.1982C105.521 23.1982 99.3797 21.7116 93.6104 18.9243C93.2382 18.7385 85.9802 15.3938 78.3499 15.3938C78.1638 15.3938 77.9777 15.3938 77.7916 15.3938C68.8586 15.5796 63.8338 18.7385 60.4839 21.5258C57.134 21.5258 54.3424 22.4549 51.737 23.1982C49.5037 23.7556 47.4566 24.3131 45.5955 24.3131C44.8511 24.3131 43.3623 24.3131 43.3623 24.3131C41.129 24.3131 30.1489 21.5258 21.402 18.1811C20.4715 18.7385 19.7271 19.4818 18.7965 20.2251C27.9156 23.9414 39.0819 26.9145 42.6179 27.1004C43.5484 27.1004 44.665 27.2862 45.5955 27.2862C47.8288 27.2862 50.2481 26.7287 52.4814 25.9854C53.7841 25.6138 55.273 25.2422 56.7618 24.8705C56.3896 25.2422 56.0174 25.6138 55.4591 26.1713L49.1315 33.0465C48.5732 33.604 47.4566 34.9047 48.201 36.5771C48.5732 37.3204 49.1315 37.8778 49.8759 38.4353C51.3648 39.3644 54.1563 40.1076 56.5757 40.1076C57.5062 40.1076 58.4367 40.1076 59.1811 39.736C61.7866 39.1785 64.5782 36.9487 67.5558 34.5331C69.9752 32.6749 73.3251 30.2593 75.7444 29.516C76.4888 29.3302 77.4194 29.1444 77.9777 29.1444C78.1638 29.1444 78.3499 29.1444 78.536 29.1444C80.2109 29.3302 81.8859 29.8876 84.8635 32.1175C90.0744 36.0196 113.151 56.2738 113.337 56.4597C113.337 56.4597 114.826 57.7604 114.64 59.8044C114.64 60.9193 113.896 62.0342 112.779 62.7775C111.849 63.3349 110.732 63.7066 109.801 63.7066C108.313 63.7066 107.196 62.9633 107.196 62.9633C107.196 62.9633 99.1936 55.7164 96.2159 53.3007C95.8437 52.9291 95.2854 52.5575 94.9132 52.5575C94.7271 52.5575 94.5409 52.7433 94.3548 52.9291C93.9826 53.4866 94.3548 54.2298 95.0993 54.7873L104.404 64.0782C104.404 64.0782 105.521 65.1931 105.707 66.4938C105.707 67.9804 104.963 69.2811 103.474 70.396C102.357 71.1393 101.241 71.5109 100.124 71.5109C98.6352 71.5109 97.7047 70.9535 97.5186 70.7677L96.2159 69.4669C93.7965 67.0513 91.3772 64.6357 89.5161 63.1491C89.1439 62.7775 88.5856 62.4058 88.2134 62.4058C88.0273 62.4058 87.8412 62.4058 87.6551 62.5917C87.469 62.7775 87.2829 63.3349 87.8412 63.8924C88.0273 64.264 88.2134 64.4498 88.2134 64.4498L94.9132 72.0684C94.9132 72.0684 96.2159 73.7408 95.0993 75.2273L94.9132 75.5989C94.7271 75.7848 94.5409 75.9706 94.3548 76.1564C93.2382 77.0855 91.7494 77.2713 91.005 77.2713C90.6328 77.2713 90.4467 77.2713 90.0744 77.2713C89.33 77.0855 88.9578 76.8997 88.7717 76.7139C88.3995 76.3422 85.0496 72.8117 82.2581 70.5819C81.8859 70.2102 81.5137 69.8386 80.9553 69.8386C80.7692 69.8386 80.5831 69.8386 80.397 70.0244C79.8387 70.5818 80.7692 71.5109 80.9553 71.8826L86.7246 78.2004C86.7246 78.2004 86.7246 78.3862 86.5385 78.572C86.3524 78.9437 85.6079 79.5011 83.5608 79.8728C83.3747 79.8728 83.0025 79.8728 82.8164 79.8728C80.5831 79.8728 78.3499 78.7579 77.2333 78.2004C77.7916 77.0855 77.9777 75.7848 77.9777 74.484C77.9777 69.8386 74.0695 65.9364 69.4169 65.9364C69.2308 65.9364 69.2308 65.9364 69.0447 65.9364C69.2308 63.7066 68.8586 59.6186 64.7643 57.9462C63.6476 57.3887 62.3449 57.2029 61.2283 57.2029C60.2978 57.2029 59.3672 57.3887 58.6228 57.7604C57.6923 56.088 56.3896 54.7873 54.3424 54.2298C53.2258 53.8582 52.2953 53.6724 51.1787 53.6724C49.5037 53.6724 47.8288 54.2298 46.34 55.1589C45.0372 53.4866 42.804 52.3717 40.7568 52.3717C38.8958 52.3717 37.0347 53.1149 35.5459 54.4157C33.6849 53.1149 26.6129 48.4695 7.63027 44.1956C6.69975 44.0098 4.65261 43.4524 3.34988 43.0807C3.16377 44.1956 2.97767 45.1247 2.79156 46.2396C2.79156 46.2396 6.32755 47.1687 7.07196 47.1687C26.4268 51.4426 32.9404 55.9022 34.0571 56.8313C33.6849 57.7604 33.4988 58.6895 33.4988 59.6186C33.4988 63.7066 36.8486 66.8655 40.7568 66.8655C41.129 66.8655 41.6873 66.8655 42.0596 66.6797C42.6179 69.6528 44.665 71.8826 47.4566 72.9975C48.3871 73.3691 49.1315 73.5549 50.062 73.5549C50.6204 73.5549 51.1787 73.5549 51.737 73.3691C52.2953 74.6699 53.598 76.528 56.2035 77.6429C57.134 78.0146 58.0645 78.2004 58.995 78.2004C59.7395 78.2004 60.4839 78.0146 61.2283 77.8288C62.531 80.9877 65.6948 83.2175 69.2308 83.2175C71.464 83.2175 73.6973 82.2884 75.3722 80.616C76.6749 81.3593 79.6526 82.8459 82.6303 82.8459C83.0025 82.8459 83.3747 82.8459 83.7469 82.8459C86.7246 82.4742 88.0273 81.3593 88.5856 80.4302C88.7717 80.2444 88.7717 80.0586 88.9578 79.8728C89.7022 80.0586 90.4467 80.2444 91.1911 80.2444C92.866 80.2444 94.3548 79.6869 95.8437 78.572C97.3325 77.4571 98.4491 75.9706 98.6352 74.484C99.1936 74.6699 99.7519 74.6698 100.124 74.6698C101.799 74.6698 103.474 74.1124 104.963 73.1833C107.94 71.1393 108.499 68.7237 108.499 67.0513C109.057 67.2371 109.615 67.2371 110.174 67.2371C111.663 67.2371 113.151 66.6797 114.64 65.9364C116.501 64.8215 117.618 62.9633 117.804 60.9193C117.99 59.4327 117.618 58.132 116.873 56.8313C121.898 54.6015 133.251 50.5135 146.836 47.5404C146.836 46.4255 146.65 45.4964 146.464 44.3815C130.273 47.3546 118.176 52.5575 115.012 53.8582ZM69.4169 80.2444C66.2531 80.2444 63.6476 77.8288 63.4615 74.6698C63.4615 74.484 63.4615 73.7408 62.9032 73.7408C62.7171 73.7408 62.531 73.9266 62.1588 74.1124C61.4144 74.6698 60.4839 75.4131 59.3672 75.4131C58.8089 75.4131 58.0645 75.2273 57.5062 75.0415C54.1563 73.7408 54.1563 71.3251 54.3424 70.396C54.3424 70.2102 54.3424 69.8386 54.1563 69.6528L53.9702 69.4669H53.7841C53.598 69.4669 53.4119 69.4669 53.2258 69.6528C52.1092 70.396 51.1787 70.7677 50.2481 70.7677C49.6898 70.7677 49.1315 70.5818 48.5732 70.396C44.1067 68.7237 44.4789 64.4498 44.665 63.3349C44.665 63.1491 44.665 62.9633 44.4789 62.7775L44.1067 62.5917L43.7345 62.9633C42.804 63.7066 41.6873 64.264 40.5707 64.264C37.9653 64.264 35.9181 62.22 35.9181 59.6186C35.9181 57.0171 37.9653 54.9731 40.5707 54.9731C42.804 54.9731 44.8511 56.6455 45.0372 58.8753L45.2233 60.176L45.9677 59.0611C45.9677 58.8753 47.8288 56.088 51.3648 56.088C51.9231 56.088 52.6675 56.2738 53.4119 56.4597C56.2035 57.2029 56.5757 59.8044 56.5757 60.7335C56.5757 61.2909 57.134 61.2909 57.134 61.2909C57.3201 61.2909 57.5062 61.1051 57.6923 61.1051C58.2506 60.5477 59.3672 59.6186 61.0422 59.6186C61.7866 59.6186 62.7171 59.8044 63.6476 60.176C67.928 62.0342 66.067 67.4229 66.067 67.6088C65.6948 68.5378 65.6948 68.9095 66.067 69.0953H66.2531H66.4392C66.6253 69.0953 66.8114 69.0953 67.1836 68.9095C67.7419 68.7237 68.6725 68.352 69.4169 68.352C72.5806 68.352 75.3722 70.9535 75.3722 74.2982C75.3722 77.6429 72.7668 80.2444 69.4169 80.2444Z" fill="#0A0080"/>
</g>
<defs>
<clipPath id="clip0_427_35">
<rect width="150" height="103.687" fill="white" transform="translate(0 0.156738)"/>
</clipPath>
</defs>
</svg>
