<svg width="40" height="36" viewBox="0 0 40 36" fill="none" xmlns="http://www.w3.org/2000/svg">
<path d="M20 18.8106L13.9938 24.8168C13.8869 24.9237 13.7556 24.9809 13.5999 24.9886C13.4442 24.9962 13.3053 24.9389 13.1832 24.8168C13.0611 24.6947 13 24.5596 13 24.4115C13 24.2634 13.0611 24.1283 13.1832 24.0062L19.1894 18L13.1832 11.9938C13.0763 11.8869 13.0191 11.7556 13.0114 11.5999C13.0038 11.4442 13.0611 11.3053 13.1832 11.1832C13.3053 11.0611 13.4404 11 13.5885 11C13.7366 11 13.8717 11.0611 13.9938 11.1832L20 17.1894L26.0062 11.1832C26.1131 11.0763 26.2447 11.0191 26.4012 11.0114C26.5562 11.0038 26.6947 11.0611 26.8168 11.1832C26.9389 11.3053 27 11.4404 27 11.5885C27 11.7366 26.9389 11.8717 26.8168 11.9938L20.8106 18L26.8168 24.0062C26.9237 24.1131 26.9809 24.2447 26.9886 24.4012C26.9962 24.5562 26.9389 24.6947 26.8168 24.8168C26.6947 24.9389 26.5596 25 26.4115 25C26.2634 25 26.1283 24.9389 26.0062 24.8168L20 18.8106Z" fill="#F2F2F2"/>
</svg>
